<svg width="960" height="540" viewBox="0 0 960 540" fill="none" xmlns="http://www.w3.org/2000/svg">
<g clip-path="url(#clip0_799_104618)">
<g opacity="0.4" clip-path="url(#clip1_799_104618)">
<path d="M7.86142 539.983C7.86142 519.607 11.8852 492.812 7.35207 472.878C0.968292 444.895 -26.4174 427.032 -22.071 395.72C-19.1508 374.852 -2.66503 360.792 3.54896 341.486C10.0176 321.348 5.60332 292.244 6.58805 271.104C8.4896 230.572 8.54053 181.704 -9.15069 144.347C-19.4394 122.63 -29.5245 109.284 -19.9148 84.4928C-7.60568 52.8249 7.69161 35.9977 7.86139 0.0339487" stroke="white" stroke-width="0.25" stroke-miterlimit="10"/>
<path d="M18.1502 539.983C18.1502 519.437 22.0212 492.982 17.4202 472.895C10.9685 444.691 -16.5361 427.15 -11.7483 395.686C-8.53941 374.903 7.92938 360.894 14.0755 341.486C20.3064 321.789 17.0127 292.244 17.6748 271.63C18.9652 231.353 15.6374 182.654 2.63219 144.28C-4.78725 122.426 -11.9011 107.976 -4.48165 84.5097C5.34869 53.6739 18.0823 33.7223 18.1502 0.0169142" stroke="white" stroke-width="0.25" stroke-miterlimit="10"/>
<path d="M28.4557 539.983C28.4557 519.199 32.106 493.084 27.471 472.708C21.0023 444.147 -6.85882 426.505 -1.47676 394.752C2.03772 374.105 18.4895 360.639 24.6696 341.265C30.6968 322.366 28.5066 292.397 28.7952 272.564C29.1481 254.604 27.4391 236.664 23.7018 219.094C18.4556 194.218 19.4912 169.325 14.4997 144.263C10.2212 122.868 6.01059 106.482 11.104 84.5437C18.2858 54.5059 28.4557 31.6847 28.4047 0.0169142" stroke="white" stroke-width="0.25" stroke-miterlimit="10"/>
<path d="M38.7447 539.983C38.7447 518.945 42.1404 493.169 37.5563 472.521C31.0876 443.553 2.95483 425.707 8.84624 393.649C12.6154 373.188 28.9314 360.283 35.0605 341.011C40.85 322.774 39.6106 292.549 39.7125 273.447C39.6868 255.238 37.4462 237.101 33.0401 219.433C27.0468 194.371 27.5561 170.072 26.2488 144.297C23.6172 94.2563 38.9824 49.5307 38.7956 -0.0340757" stroke="white" stroke-width="0.25" stroke-miterlimit="10"/>
<path d="M49.0334 539.983C49.0334 518.758 52.2763 493.322 47.6922 472.47C41.2235 443.163 13.0058 425.418 19.2877 393.088C23.2267 372.712 39.5596 360.3 45.0775 340.892C50.171 322.621 50.3917 292.855 50.3747 273.939C50.3577 255.024 46.3679 236.311 42.0045 218.143C35.9093 192.401 36.8092 170.87 37.9976 144.347C40.1539 96.0222 49.1692 48.1724 49.0504 0.0169142" stroke="white" stroke-width="0.25" stroke-miterlimit="10"/>
<path d="M59.3392 539.983C59.3392 518.639 62.3953 493.542 57.8621 472.521C51.4613 442.959 23.2776 425.571 29.8991 393.037C34.0248 372.797 49.9843 360.436 55.5191 340.994C60.6126 323.3 61.5294 292.651 61.3596 274.364C61.1898 256.076 56.4869 235.887 51.2916 218.584C43.2779 191.875 45.1115 171.549 49.8145 144.178C57.9809 96.7184 59.509 48.1214 59.3392 0.0169142" stroke="white" stroke-width="0.25" stroke-miterlimit="10"/>
<path d="M69.6277 539.983C69.6277 518.503 72.48 493.848 68.3713 472.657C62.6497 443.061 36.2996 424.298 43.0739 392.019C47.2845 371.88 63.0741 360.266 68.5581 340.977C73.6515 322.536 72.5989 292.312 71.8009 273.294C69.8145 225.75 48.6767 191.314 62.2252 143.108C75.4682 95.9882 69.7465 48.5799 69.6277 0.0169144" stroke="white" stroke-width="0.25" stroke-miterlimit="10"/>
<path d="M79.9336 539.983C79.9336 518.282 82.4463 494.137 79.0168 472.657C74.3478 443.4 50.7821 421.853 57.7262 390.507C62.0896 370.794 78.0999 359.332 83.1934 340.162C88.2868 320.584 83.9404 292.991 82.3445 273.022C78.5923 226.531 58.8637 188.937 75.1288 142.632C92.1069 94.4261 80.0184 50.0911 79.9675 -4.4203e-05" stroke="white" stroke-width="0.25" stroke-miterlimit="10"/>
<path d="M90.2394 539.983C90.2394 518.096 92.2768 494.51 89.5773 472.776C86.0288 443.91 65.1627 419.17 72.3614 389.03C76.9625 369.741 93.1427 358.109 97.7098 338.956C102.616 318.427 95.5026 294.468 93.0578 273.939C87.6417 228.569 69.8487 187.086 88.0662 142.836C108.915 92.2696 90.2394 52.6551 90.2394 0.0169147" stroke="white" stroke-width="0.25" stroke-miterlimit="10"/>
<path d="M100.528 539.983C100.528 517.909 102.464 494.578 100.409 472.555C97.7947 444.283 79.4414 416.793 86.8268 387.655C91.6826 368.756 107.931 357.091 112.022 337.835C116.606 316.186 107.133 296.047 103.737 275.009C96.6402 230.98 81.292 185.015 101.021 143.006C110.834 122.138 120.291 104.716 115.825 80.893C110.46 52.1967 100.545 30.3943 100.545 -4.3851e-05" stroke="white" stroke-width="0.25" stroke-miterlimit="10"/>
<path d="M110.817 539.983C110.817 517.569 112.345 494.493 111.02 472.063C109.323 444.453 93.8216 414.568 101.326 386.704C106.419 368.026 122.82 356.564 126.505 337.088C130.936 313.656 118.864 297.321 114.348 275.179C105.706 232.881 93.1085 181.636 114.178 142.429C125.163 121.968 137.489 103.918 130.681 79.6025C122.498 50.21 110.8 32.279 110.817 0.0169151" stroke="white" stroke-width="0.25" stroke-miterlimit="10"/>
<path d="M121.105 539.983C121.105 517.399 122.141 494.561 121.632 472.063C121.02 444.895 108.406 413.074 115.808 386.211C120.902 367.533 137.591 356.479 140.987 336.766C145.384 311.295 130.8 298.085 125.078 274.805C121.241 258.997 122.379 240.573 119.187 224.256C112.854 191.994 110.002 171.617 127.54 142.412C139.781 122.036 153.958 104.003 145.52 78.8554C135.333 48.5799 121.105 34.3167 121.105 0.0679431" stroke="white" stroke-width="0.25" stroke-miterlimit="10"/>
<path d="M131.411 539.983C131.411 517.179 132.073 494.425 132.277 471.638C132.515 444.691 122.769 411.427 130.002 385.04C135.095 366.583 151.496 355.749 154.688 336.171C159.051 309.36 142.396 297.983 135.859 273.973C131.734 258.81 132.871 239.164 130.036 223.339C124.212 190.992 121.734 171.244 139.968 142.531C152.939 122.154 168.423 104.071 158.814 78.4308C147.235 47.5271 131.343 35.8788 131.411 0.0509086" stroke="white" stroke-width="0.25" stroke-miterlimit="10"/>
<path d="M141.7 539.983C141.7 516.924 141.853 494.001 142.685 470.959C143.67 443.791 136.895 410.833 142.685 384.276C146.658 366.056 162.227 354.408 165.351 335.815C169.867 308.918 153.262 297.389 146.369 273.192C134.994 233.306 129.51 178.732 149.663 142.174C160.953 121.696 175.69 102.526 166.896 77.9045C156.132 47.7479 141.785 34.5374 141.717 0.0169153" stroke="white" stroke-width="0.25" stroke-miterlimit="10"/>
<path d="M151.989 539.983C151.598 490.978 146.895 433.484 155.248 385.278C158.406 367.024 173.194 354.408 176.115 336.137C180.512 308.681 164.468 297.932 156.929 273.192C144.739 233.119 141.207 179.649 159.204 141.834C169.782 119.624 180.189 103.103 174.892 77.8535C168.339 66.8052 162.34 55.4512 156.895 43.7915C152.188 29.71 150.516 14.7913 151.989 0.0169153" stroke="white" stroke-width="0.25" stroke-miterlimit="10"/>
<path d="M162.278 539.983C161.955 489.841 162.023 436.829 167.677 387.162C169.782 368.603 184.264 355.053 186.913 336.782C191.005 308.545 175.69 300.292 167.235 275.009C153.873 235.123 152.753 179.921 168.61 141.478C177.643 119.523 187.371 102.271 182.923 77.9554C176.556 67.1014 171.181 55.6956 166.862 43.8764C162.609 29.671 161.06 14.7938 162.295 0.0169153" stroke="white" stroke-width="0.25" stroke-miterlimit="10"/>
<path d="M172.583 539.983C172.447 491.335 171.904 436.32 180.189 388.775C183.364 370.59 195.283 355.206 197.677 337.275C201.514 308.409 187.083 302.449 177.745 276.775C163.228 236.855 164.162 179.751 178.101 140.425C185.775 118.86 194.587 101.371 190.987 78.0573C184.811 67.2515 180.051 55.6948 176.828 43.6726C173.053 29.4477 171.619 14.7028 172.583 0.0169153" stroke="white" stroke-width="0.25" stroke-miterlimit="10"/>
<path d="M182.872 539.983C182.77 488.737 191.548 439.58 192.787 389.047C193.28 369.486 206.013 355.817 208.373 337.309C212.041 308.443 198.186 304.452 188.169 278.847C172.532 238.96 175.351 178.953 187.558 138.965C193.976 117.909 201.871 100.641 199.086 78.2101C195.691 51.6363 183.415 28.8491 182.889 0.0169153" stroke="white" stroke-width="0.25" stroke-miterlimit="10"/>
<path d="M193.178 539.983C193.178 518.164 190.801 494.137 194.06 472.521C198.492 443.044 205.945 420.104 205.436 390.202C205.062 370.029 216.981 356.785 219.188 337.92C222.584 308.714 209.629 306.796 198.577 281.054C181.395 241.049 186.471 177.883 196.879 137.063C201.972 116.789 209.103 99.7068 207.066 78.5327C204.74 52.6551 193.806 27.8303 193.177 0.0169153" stroke="white" stroke-width="0.25" stroke-miterlimit="10"/>
<path d="M203.466 539.983C203.466 518.486 201.005 494.578 204.553 473.302C209.081 458.994 212.946 444.51 216.149 429.85C220.57 417.509 220.862 404.065 216.981 391.543C218.526 373.442 225.793 356.377 227.168 338.752C229.511 310.294 218.679 306.966 207.439 282.005C188.39 239.657 195.555 179.938 207.032 136.706C212.261 116.891 218 100.131 216.217 79.4157C213.959 53.1136 203.942 27.8982 203.382 0.0169152" stroke="white" stroke-width="0.25" stroke-miterlimit="10"/>
<path d="M213.772 539.983C213.535 489.043 225.827 442.246 228.136 392.766C228.985 374.495 234.061 356.547 234.927 338.599C236.183 310.769 227.711 307.305 216.251 283.312C194.468 238.009 204.366 181.924 217.711 135.959C231.769 87.651 214.876 49.1233 213.891 0.0169151" stroke="white" stroke-width="0.25" stroke-miterlimit="10"/>
<path d="M224.061 539.983C224.061 518.928 221.327 494.969 225.759 474.219C232.109 444.113 243.093 425.13 239.341 393.683C236.93 373.765 242.346 357.566 242.618 338.124C243.009 310.956 236.659 307.56 224.842 284.671C199.969 236.312 212.703 183.894 228.238 135.246C243.093 88.585 225.249 47.646 224.214 0.0339495" stroke="white" stroke-width="0.25" stroke-miterlimit="10"/>
<path d="M234.35 539.983C234.35 519.046 231.582 494.833 236.404 474.253C243.518 444.012 255.182 426.318 250.275 394.328C247.219 374.427 250.275 357.957 249.987 338.294C249.664 312.212 245.063 307.356 233.331 285.435C205.759 233.951 220.835 186.849 238.425 135.433C253.909 90.232 235.25 46.3895 234.333 0.0509081" stroke="white" stroke-width="0.25" stroke-miterlimit="10"/>
<path d="M244.74 539.983C244.74 519.03 241.616 494.341 246.948 473.761C254.724 443.791 267.678 426.93 261.379 394.668C253.399 353.78 262.449 321.534 242.092 284.891C212.244 231.133 229.155 190.669 248.544 137.267C264.622 93.0167 245.148 45.5744 244.74 -0.0170786" stroke="white" stroke-width="0.25" stroke-miterlimit="10"/>
<path d="M254.927 539.983C254.927 519.097 251.752 494.29 257.457 473.88C265.81 443.995 279.783 427.524 272.482 394.99C263.671 355.732 270.513 318.376 250.615 283.533C218.543 227.329 237.524 194.116 258.917 138.761C275.555 95.7165 255.182 44.7084 254.927 0.0169146" stroke="white" stroke-width="0.25" stroke-miterlimit="10"/>
<path d="M265.233 539.983C265.233 519.03 261.956 494.256 267.015 473.761C274.146 444.759 288.476 426.743 281.837 395.55C273.586 356.887 279.087 315.744 259.375 281.597C248.322 262.461 237.439 246.296 237.49 223.152C237.49 191.365 258.323 167.848 269.528 139.95C286.506 97.6692 265.419 44.2159 265.233 0.0847594" stroke="white" stroke-width="0.25" stroke-miterlimit="10"/>
<path d="M275.539 539.983C275.539 518.741 271.888 494.527 275.012 473.489C279.155 445.574 291.99 424.62 288.272 395.567C283.264 356.717 288.578 313.656 268.866 279.458C257.847 260.338 245.453 245.226 245.759 221.81C246.149 190.584 268.934 168.289 279.902 140.951C297.05 98.2296 275.759 44.5217 275.539 0.0169143" stroke="white" stroke-width="0.25" stroke-miterlimit="10"/>
<path d="M285.828 539.983C285.828 518.231 281.668 495.02 282.924 473.438C284.503 446.151 296.388 422.583 294.809 394.837C292.551 356.293 298.205 311.635 278.663 277.573C267.661 258.369 253.314 244.071 253.926 220.197C254.724 189.548 280.293 169.376 290.293 142.276C306.575 98.1277 286.082 45.5744 285.861 0.0169142" stroke="white" stroke-width="0.25" stroke-miterlimit="10"/>
<path d="M296.133 539.983C295.93 517.501 291.566 495.699 290.853 473.489C289.97 446.457 301.04 421.038 301.193 394.005C301.549 355.749 308.086 309.75 288.408 275.586C277.44 256.552 260.921 243.171 261.905 219.009C263.145 188.716 291.77 170.208 301.074 142.972C316.354 97.907 296.575 46.1857 296.116 0.0169141" stroke="white" stroke-width="0.25" stroke-miterlimit="10"/>
<path d="M306.422 539.983C306.218 516.499 301.889 496.565 298.918 473.642C295.403 446.372 305.59 420.562 307.763 393.683C310.802 356.191 317.95 307.084 297.984 273.243C286.999 254.565 268.646 243.171 269.749 218.907C271.124 188.513 302.568 171.006 311.804 143.532C327.084 98.0937 306.829 46.4404 306.422 -0.0170793" stroke="white" stroke-width="0.25" stroke-miterlimit="10"/>
<path d="M316.711 539.983C316.575 515.311 312.551 497.397 307.067 473.761C300.514 445.659 310.021 421.445 314.385 393.954C320.208 357.193 327.695 305.03 307.593 271.341C296.558 252.85 276.269 242.645 277.593 218.058C279.291 187.494 313.349 171.651 322.449 143.804C337.339 98.1787 316.965 46.6103 316.711 0.0339484" stroke="white" stroke-width="0.25" stroke-miterlimit="10"/>
<path d="M327.016 539.983C326.829 514.19 323.043 497.906 315.131 473.761C305.573 444.776 314.367 422.82 321.006 394.481C329.495 358.33 337.492 304.198 317.407 270.272C306.337 251.594 284.809 242.356 286.387 217.26C288.34 186.373 324.096 172.025 333.162 143.719C347.763 98.1107 327.254 46.5083 327.067 -0.0170795" stroke="white" stroke-width="0.25" stroke-miterlimit="10"/>
<path d="M337.305 539.983C337.305 513.307 334.164 498.297 324.045 473.998C311.498 443.91 319.104 424.892 329.24 395.652C341.278 360.894 346.473 304.13 328.935 270C319.342 251.322 300.632 241.304 301.77 217.701C303.298 187.986 334.945 170.87 342.263 142.819C354.147 97.1938 337.067 46.4065 337.169 0.0509073" stroke="white" stroke-width="0.25" stroke-miterlimit="10"/>
<path d="M347.594 539.983C347.594 512.492 345.013 498.484 332.84 474.168C317.169 442.857 323.875 426.199 337.628 396.06C352.755 362.898 355.2 304.368 340.446 269.966C332.5 251.475 316.388 240.37 317.339 218.296C318.578 189.718 346.032 170.429 351.499 142.683C360.565 96.6844 347.424 46.4914 347.594 0.0509075" stroke="white" stroke-width="0.25" stroke-miterlimit="10"/>
<path d="M357.899 539.983C357.899 511.728 355.573 498.586 341.498 474.321C322.704 441.906 328.578 426.624 346.1 395.822C364.538 363.39 362.857 305.658 351.923 270C346.269 251.526 331.957 239.826 332.857 219.06C334.062 191.484 357.084 170.616 360.616 143.125C366.626 96.5486 357.899 46.9498 357.899 0.101794" stroke="white" stroke-width="0.25" stroke-miterlimit="10"/>
<path d="M368.189 539.983C368.07 510.998 365.863 498.687 350.039 474.576C327.967 441.057 333.265 426.352 354.623 395.024C375.642 364.171 371.601 305.811 363.35 269.915C359.241 252.035 347.526 238.4 348.324 219.162C349.411 192.52 368.121 170.582 369.666 143.549C372.365 96.2599 368.324 47.4422 368.188 0.0169141" stroke="white" stroke-width="0.25" stroke-miterlimit="10"/>
<path d="M378.477 539.983C378.188 510.268 375.998 498.772 358.494 474.864C333.281 440.395 338.12 425.843 363.18 394.243C386.728 364.647 380.497 306.167 375.064 269.677C372.416 252.222 363.18 236.872 363.893 218.737C364.877 192.843 379.173 170.344 378.749 143.804C377.917 95.8694 378.613 48.0535 378.545 -0.0170793" stroke="white" stroke-width="0.25" stroke-miterlimit="10"/>
<path d="M388.783 539.983C388.477 509.521 386.491 498.721 367.221 475.102C338.647 440.089 342.738 425.724 371.72 394.226C398.07 365.598 389.19 306.184 386.491 268.743C385.235 251.458 379.156 235.123 379.411 217.684C379.768 192.486 390.039 169.801 387.815 143.991C383.673 95.5977 388.817 48.6818 388.783 0.0169138" stroke="white" stroke-width="0.25" stroke-miterlimit="10"/>
<path d="M399.071 539.983C398.851 510.132 396.983 498.67 378.528 475.119C350.531 439.359 353.706 426.047 382.993 394.226C409.496 365.36 400.532 304.86 398.273 267.385C397.221 249.98 392.229 233.051 392.382 215.579C392.569 190.924 399.954 169.087 396.253 143.974C389.122 95.4449 398.936 49.0214 399.105 0.0169138" stroke="white" stroke-width="0.25" stroke-miterlimit="10"/>
<path d="M409.428 539.983C409.19 511.762 407.374 498.382 391.448 474.932C366.881 438.748 369.546 427.388 396.287 395.126C421.007 365.394 413.825 303.756 410.532 266.842C408.936 248.911 403.859 231.37 403.74 213.303C403.622 188.767 409.411 168.103 404.233 143.278C394.148 95.1053 409.156 49.0893 409.428 0.016914" stroke="white" stroke-width="0.25" stroke-miterlimit="10"/>
<path d="M419.615 539.983C419.276 513.392 417.595 497.855 404.114 474.746C383.078 438.663 385.727 429.222 409.462 396.943C432.213 365.971 427.052 304.079 422.858 267.453C420.719 248.775 415.354 230.521 414.997 211.622C414.505 186.73 419.004 167.22 412.128 142.361C398.987 94.6807 419.615 49.2591 419.615 0.0169143" stroke="white" stroke-width="0.25" stroke-miterlimit="10"/>
<path d="M429.972 539.983C429.768 515.005 428.393 497.686 417.323 475.068C399.717 439.087 402.043 431.327 422.773 398.658C443.011 366.752 441.126 304.809 435.371 268.777C428.749 227.176 433.673 180.787 420.09 141.427C403.757 94.494 430.107 49.2591 430.022 -0.0170788" stroke="white" stroke-width="0.25" stroke-miterlimit="10"/>
<path d="M440.261 539.983C440.261 516.415 439.208 497.397 430.481 475.272C416.338 439.444 418.427 432.737 435.965 399.762C445.592 381.661 443.028 364.103 445.711 344.729C449.514 317.425 453.13 298.594 447.731 270.832C439.429 228.212 444.471 180.838 427.714 141.155C418.817 120.032 415.829 107.738 423.622 84.9851C434.335 54.0305 440.312 33.5355 440.261 0.0847597" stroke="white" stroke-width="0.25" stroke-miterlimit="10"/>
<path d="M450.549 539.983C450.549 517.433 449.938 496.786 443.452 475C433.062 440.055 434.148 433.212 449.31 400.865C457.358 383.664 454.403 364.409 457.459 346.359C462.213 317.918 466.577 302.517 459.887 273.345C449.7 229.197 455.626 181.109 435.626 140.595C425.32 119.743 422.417 107.806 431.466 84.9343C443.979 53.3004 450.617 34.9789 450.549 0.033949" stroke="white" stroke-width="0.25" stroke-miterlimit="10"/>
<path d="M460.855 539.983C460.855 517.909 460.329 496.582 456.152 474.83C452.618 462.779 449.784 450.532 447.663 438.153C449.138 425.151 454.18 412.811 462.23 402.495C473.113 362.168 480.906 316.95 471.602 276.945C461.11 231.54 467.578 180.6 444.03 140.102C432.264 119.896 429.768 107.416 439.564 84.8493C453.571 52.6551 460.821 36.0826 460.855 0.0169144" stroke="white" stroke-width="0.25" stroke-miterlimit="10"/>
<path d="M471.144 539.983C471.437 518.212 470.206 496.447 467.459 474.847C465.196 462.927 463.305 450.951 461.789 438.918C463.257 426.18 467.555 413.933 474.369 403.073C484.556 361.845 493.045 320.567 482.757 280.035C470.872 232.898 478.784 182.009 454.064 139.882C442.06 119.506 438.206 108.146 448.597 84.9851C462.96 52.9947 470.991 36.2863 471.144 0.0847593" stroke="white" stroke-width="0.25" stroke-miterlimit="10"/>
<path d="M481.432 539.983C481.432 518.079 480.448 496.599 478.716 474.762C476.492 446.457 480.804 429.409 486.594 402.393C490.346 384.887 491.076 366.735 494.794 349.161C500.889 320.38 502.112 311.567 493.979 282.939C480.397 235.072 490.499 182.654 463.826 140.136C451.076 119.76 446.508 107.552 457.425 84.4588C472.4 52.757 481.195 36.3713 481.432 0.0679421" stroke="white" stroke-width="0.25" stroke-miterlimit="10"/>
<path d="M491.738 539.983C491.602 491.658 489.803 448.409 498.53 401.035C501.772 383.495 503.47 366.005 507.426 348.516C513.844 320.244 514.081 312.705 505.287 284.942C489.803 236.04 500.737 184.319 473.419 140.374C460.6 119.726 454.471 106.906 466.254 83.6437C482.129 52.3155 491.297 36.4731 491.721 0.0169142" stroke="white" stroke-width="0.25" stroke-miterlimit="10"/>
<path d="M502.027 539.983C501.806 491.878 502.774 446.932 510.363 399.388C513.182 381.661 515.83 365.428 520.109 347.887C526.9 319.921 526.255 312.841 516.713 285.723C499.429 236.295 510.499 185.541 482.96 140.51C470.278 119.726 462.587 106.193 475.184 83.0325C491.942 52.0948 501.416 36.6599 501.976 0.0169141" stroke="white" stroke-width="0.25" stroke-miterlimit="10"/>
<path d="M512.333 539.983C512.112 491.42 517.188 445.642 522.367 397.435C524.336 379.131 528.207 365.173 532.859 347.531C540.16 319.701 538.564 311.516 528.292 284.705C509.497 235.632 520.16 186.39 492.553 140.985C479.836 120.083 470.855 106.04 484.064 82.8627C501.568 52.1967 511.484 36.8466 512.316 -0.0170792" stroke="white" stroke-width="0.25" stroke-miterlimit="10"/>
<path d="M522.621 539.983C522.621 490.52 531.484 444.249 534.336 395.126C535.474 375.735 540.55 364.239 545.678 345.986C553.437 318.359 551.128 308.986 539.871 282.684C519.396 234.8 529.82 187.086 502.519 141.919C489.718 120.796 479.395 106.261 493.232 82.8627C511.246 52.2985 521.705 37.0165 522.672 0.016914" stroke="white" stroke-width="0.25" stroke-miterlimit="10"/>
<path d="M532.91 539.983C532.672 490.028 542.299 443.417 544.098 393.835C544.795 374.478 549.565 363.085 554.065 344.746C560.856 316.865 557.749 305.183 546.475 278.728C527.001 233.051 538.937 188.258 515.202 143.668C503.792 122.239 492.824 106.855 505.185 83.355C521.314 52.6551 531.993 36.2354 532.91 0.0169141" stroke="white" stroke-width="0.25" stroke-miterlimit="10"/>
<path d="M543.216 539.983C542.486 489.399 552.299 442.551 553.64 392.46C554.15 373.561 558.021 361.404 561.62 343.218C567.138 315.422 562.978 302.687 552.418 276.384C534.608 231.948 548.734 188.699 528.648 144.229C519.039 122.919 508.054 107.076 518.139 83.8475C531.535 52.9947 542.401 35.0298 543.182 -0.0509687" stroke="white" stroke-width="0.25" stroke-miterlimit="10"/>
<path d="M553.504 539.983C552.978 518.316 549.498 495.41 551.535 473.761C554.218 445.506 563.42 420.087 563.335 391.221C563.335 372.712 566.544 359.706 569.226 341.826C573.301 314.505 568.462 301.243 558.87 275.434C542.537 231.455 558.87 188.733 542.214 144.059C534.421 123.139 523.657 107.025 531.365 84.3909C541.841 53.589 552.893 33.8581 553.437 -0.0170788" stroke="white" stroke-width="0.25" stroke-miterlimit="10"/>
<path d="M563.81 539.983C563.08 518.011 559.022 494.918 560.635 472.98C562.724 444.912 572.69 419.543 572.961 390.932C573.114 373.137 574.999 358.466 576.747 340.96C579.43 314.165 574.269 300.106 565.525 274.737C550.448 231.031 568.921 188.58 555.796 143.685C549.803 123.224 539.294 106.754 544.642 84.8663C552.112 54.3022 563.318 32.6016 563.81 -0.0340753" stroke="white" stroke-width="0.25" stroke-miterlimit="10"/>
<path d="M574.116 539.983C573.284 517.688 568.802 494.493 569.956 472.232C571.399 444.368 582.69 419.391 582.707 391.034C582.707 373.68 583.488 357.719 584.405 340.484C585.763 313.69 578.921 298.866 572.197 273.345C560.618 229.35 579.073 188.784 569.532 143.838C565.236 123.632 554.812 106.482 558.004 85.2908C562.52 55.304 573.963 31.3621 574.184 0.0169148" stroke="white" stroke-width="0.25" stroke-miterlimit="10"/>
<path d="M584.388 539.983C583.505 517.484 578.649 494.357 579.295 471.893C580.076 444.198 592.554 419.713 592.334 391.543C592.181 374.359 591.858 357.413 591.977 340.28C592.181 314.012 585.033 297.677 579.125 272.53C568.802 228.636 589.838 189.022 583.301 144.161C580.364 123.937 569.719 106.805 571.077 85.97C572.894 56.4586 584.371 30.3433 584.405 0.016915" stroke="white" stroke-width="0.25" stroke-miterlimit="10"/>
<path d="M594.846 539.796C593.709 517.23 588.242 494.171 588.649 471.655C589.142 444.216 602.571 420.393 602.147 392.477C601.875 375.073 600.534 357.329 600.228 339.839C599.753 314.233 593.131 297.576 587.512 273.006C577.325 228.246 602.537 189.803 596.001 144.534C593.199 124.922 584.422 106.703 584.388 86.8022C584.388 57.5965 594.71 29.6983 594.575 0.0171475" stroke="white" stroke-width="0.25" stroke-miterlimit="10"/>
<path d="M605.169 539.457C603.862 517.026 597.869 493.916 598.497 471.536C599.244 444.606 612.334 421.139 612.555 393.734C612.894 351.283 606.731 313.231 597.274 272.734C586.816 228.008 611.434 190.092 606.85 144.823C604.881 125.33 597.936 106.788 597.665 87.0907C597.274 58.0038 605.118 29.3584 604.982 -0.0171054" stroke="white" stroke-width="0.25" stroke-miterlimit="10"/>
<path d="M615.22 539.321C613.862 516.992 607.427 493.814 608.327 471.485C609.414 444.963 623.013 422.243 623.132 395.075C623.285 352.353 616.035 312.365 606.612 271.443C596.425 227.006 620.195 189.769 617.631 144.874C616.527 125.432 611.468 106.652 610.976 87.2266C610.246 58.2246 615.509 29.1378 615.288 -0.0169781" stroke="white" stroke-width="0.25" stroke-miterlimit="10"/>
<path d="M625.407 539.338C623.947 517.06 617.054 493.763 618.191 471.418C619.532 444.997 633.471 422.515 633.37 395.432C633.183 352.863 625.203 312.23 615.729 271.477C605.356 226.922 628.989 189.735 628.463 144.925C627.903 96.6167 626.035 48.4273 625.577 -0.0507368" stroke="white" stroke-width="0.25" stroke-miterlimit="10"/>
<path d="M635.882 539.439C634.184 517.094 626.884 493.712 628.055 471.332C629.431 444.928 643.845 422.311 643.658 395.279C643.353 353.27 635.067 311.227 625.678 270.968C615.271 226.293 637.818 189.735 639.261 145.061C640.84 96.8881 636.324 48.2742 635.865 0.0168324" stroke="white" stroke-width="0.25" stroke-miterlimit="10"/>
<path d="M646.188 539.609C644.389 517.196 636.528 493.763 637.852 471.248C639.397 444.895 654.406 422.226 654.168 395.262C653.794 353.881 644.915 310.243 635.679 270.56C625.271 225.903 646.698 189.582 650.144 145.078C653.913 96.4807 646.749 48.6818 646.171 0.0169812" stroke="white" stroke-width="0.25" stroke-miterlimit="10"/>
<path d="M656.46 539.983C654.423 517.552 645.917 493.831 647.479 471.299C649.295 445.115 666.036 422.243 664.711 395.381C662.64 353.746 655.034 310.48 645.594 270.577C635.119 226.276 655.781 189.192 661.078 145.078C667.088 95.4788 656.952 49.6157 656.46 0.0339495" stroke="white" stroke-width="0.25" stroke-miterlimit="10"/>
</g>
<g opacity="0.4" clip-path="url(#clip2_799_104618)">
<path d="M955.523 669.979C955.812 632.559 958.002 618.084 975.506 587.977C1000.72 544.571 995.88 526.247 970.82 486.454C947.272 449.185 953.503 375.544 958.936 329.594C961.584 307.613 970.82 288.283 970.107 265.447C969.123 232.839 954.827 204.507 955.251 171.087C956.083 110.724 955.387 50.5118 955.455 -10.0215" stroke="white" stroke-width="0.25" stroke-miterlimit="10"/>
<path d="M945.217 669.979C945.523 631.619 947.509 618.02 966.779 588.277C995.353 544.186 991.262 526.097 962.28 486.433C935.93 450.382 944.81 375.566 947.509 328.418C948.765 306.65 954.844 286.081 954.589 264.121C954.232 232.39 943.961 203.823 946.185 171.322C950.327 110.382 945.183 51.303 945.217 -9.97873" stroke="white" stroke-width="0.25" stroke-miterlimit="10"/>
<path d="M934.929 669.979C935.149 632.388 937.017 617.955 955.472 588.298C983.469 543.267 980.294 526.503 951.007 486.433C924.504 450.083 933.468 373.898 935.727 326.707C936.779 304.79 941.771 283.472 941.618 261.47C941.431 230.423 934.046 202.925 937.747 171.3C944.878 110.19 935.064 51.7306 934.895 -9.97873" stroke="white" stroke-width="0.25" stroke-miterlimit="10"/>
<path d="M924.572 669.979C924.81 634.441 926.626 617.592 942.552 588.063C967.119 542.497 964.454 528.192 937.713 487.566C912.993 450.126 920.175 372.508 923.468 326.023C925.064 303.443 930.141 281.355 930.26 258.604C930.378 227.707 924.589 201.685 929.767 170.424C939.852 109.762 924.844 51.8161 924.572 -9.97873" stroke="white" stroke-width="0.25" stroke-miterlimit="10"/>
<path d="M914.385 669.979C914.724 636.494 916.405 616.929 929.886 587.828C950.922 542.39 948.273 530.502 924.538 489.854C901.787 450.853 906.948 372.914 911.142 326.793C913.281 303.272 918.646 280.286 919.003 256.488C919.495 225.141 914.996 200.573 921.872 169.269C935.013 109.228 914.385 52.03 914.385 -9.97873" stroke="white" stroke-width="0.25" stroke-miterlimit="10"/>
<path d="M904.028 669.979C904.232 638.525 905.607 616.715 916.677 588.234C934.283 542.925 931.957 533.153 911.227 492.014C890.989 451.836 892.874 373.834 898.629 328.46C905.251 276.074 900.327 217.657 913.91 168.093C930.243 108.992 903.893 52.0299 903.977 -10.0215" stroke="white" stroke-width="0.25" stroke-miterlimit="10"/>
<path d="M893.739 669.979C893.739 640.3 894.792 616.352 903.519 588.491C917.662 543.374 915.573 534.928 898.035 493.403C888.408 470.61 890.972 448.501 888.289 424.103C884.486 389.721 880.87 366.008 886.269 331.048C894.571 277.378 889.529 217.721 906.286 167.751C915.183 141.151 918.171 125.671 910.378 97.0183C899.665 58.0383 893.688 32.2298 893.739 -9.89332" stroke="white" stroke-width="0.25" stroke-miterlimit="10"/>
<path d="M883.451 669.979C883.451 641.583 884.062 615.582 890.548 588.148C900.938 544.144 899.852 535.527 884.69 494.793C876.642 473.133 879.597 448.886 876.541 426.156C871.787 390.341 867.423 370.947 874.113 334.212C884.3 278.618 878.374 218.064 898.374 167.045C908.68 140.788 911.583 125.756 902.534 96.9542C890.021 57.119 883.383 34.0475 883.451 -9.95732" stroke="white" stroke-width="0.25" stroke-miterlimit="10"/>
<path d="M873.145 669.979C873.145 642.182 873.671 615.325 877.848 587.935C881.382 572.758 884.216 557.337 886.337 541.749C884.862 525.376 879.82 509.836 871.77 496.846C860.887 446.063 853.094 389.122 862.398 338.745C872.89 281.569 866.422 217.422 889.97 166.425C901.736 140.98 904.232 125.264 894.436 96.8472C880.429 56.3064 873.179 35.4373 873.145 -9.97873" stroke="white" stroke-width="0.25" stroke-miterlimit="10"/>
<path d="M862.856 669.979C862.563 642.563 863.794 615.155 866.541 587.956C868.804 572.946 870.695 557.864 872.211 542.711C870.743 526.672 866.445 511.249 859.631 497.573C849.444 445.657 840.955 393.676 851.243 342.637C863.128 283.28 855.216 219.197 879.936 166.147C891.94 140.488 895.794 126.184 885.403 97.0183C871.04 56.734 863.009 35.6938 862.856 -9.89332" stroke="white" stroke-width="0.25" stroke-miterlimit="10"/>
<path d="M852.568 669.979C852.568 642.395 853.552 615.347 855.284 587.849C857.508 552.205 853.196 530.737 847.406 496.718C843.654 474.673 842.924 451.815 839.206 429.684C833.111 393.441 831.888 382.344 840.021 346.293C853.603 286.016 843.501 220.009 870.174 166.468C882.924 140.809 887.492 125.435 876.575 96.3555C861.6 56.4347 852.805 35.8008 852.568 -9.91452" stroke="white" stroke-width="0.25" stroke-miterlimit="10"/>
<path d="M842.262 669.979C842.398 609.124 844.197 554.664 835.47 495.007C832.228 472.919 830.53 450.895 826.574 428.872C820.156 393.27 819.919 383.776 828.713 348.816C844.197 287.235 833.263 222.105 860.581 166.767C873.4 140.767 879.529 124.623 867.746 95.3291C851.871 55.8788 842.703 35.9291 842.279 -9.97873" stroke="white" stroke-width="0.25" stroke-miterlimit="10"/>
<path d="M831.973 669.979C832.194 609.402 831.226 552.804 823.637 492.933C820.818 470.61 818.17 450.168 813.891 428.081C807.1 392.864 807.745 383.947 817.287 349.8C834.571 287.556 823.501 223.644 851.04 166.938C863.722 140.766 871.413 123.725 858.816 94.5594C842.058 55.6008 832.584 36.1643 832.024 -9.97873" stroke="white" stroke-width="0.25" stroke-miterlimit="10"/>
<path d="M821.667 669.979C821.888 608.825 816.812 551.178 811.633 490.474C809.664 467.424 805.793 449.848 801.141 427.631C793.84 392.586 795.436 382.28 805.708 348.517C824.503 286.722 813.84 224.713 841.447 167.537C854.164 141.216 863.145 123.532 849.936 94.3455C832.432 55.7291 822.516 36.3994 821.684 -10.0215" stroke="white" stroke-width="0.25" stroke-miterlimit="10"/>
<path d="M811.379 669.979C811.379 607.692 802.516 549.425 799.664 487.566C798.526 463.148 793.45 448.672 788.322 425.686C780.563 390.897 782.872 379.094 794.129 345.972C814.604 285.674 804.18 225.59 831.481 168.713C844.282 142.114 854.605 123.81 840.768 94.3455C822.754 55.8574 812.295 36.6133 811.328 -9.97873" stroke="white" stroke-width="0.25" stroke-miterlimit="10"/>
<path d="M801.09 669.979C801.327 607.072 791.701 548.377 789.901 485.941C789.205 461.565 784.434 447.218 779.935 424.125C773.144 389.015 776.251 374.304 787.524 340.99C806.998 283.472 795.062 227.066 818.798 170.916C830.207 143.931 841.175 124.559 828.815 94.9656C812.686 56.3064 802.006 35.6297 801.09 -9.97873" stroke="white" stroke-width="0.25" stroke-miterlimit="10"/>
<path d="M790.784 669.979C791.514 606.281 781.701 547.287 780.36 484.209C779.85 460.411 775.979 445.101 772.38 422.2C766.862 387.198 771.022 371.161 781.582 338.04C799.392 282.082 785.266 227.621 805.352 171.621C814.961 144.786 825.946 124.837 815.861 95.5857C802.465 56.734 791.599 34.1116 790.818 -10.0642" stroke="white" stroke-width="0.25" stroke-miterlimit="10"/>
<path d="M780.496 669.979C781.022 642.695 784.502 613.85 782.465 586.588C779.782 551.007 770.58 518.998 770.665 482.648C770.665 459.341 767.456 442.963 764.774 420.447C760.699 386.043 765.538 369.343 775.13 336.842C791.463 281.462 775.13 227.664 791.786 171.407C799.579 145.064 810.343 124.773 802.635 96.2699C792.159 57.4824 781.107 32.6362 780.563 -10.0215" stroke="white" stroke-width="0.25" stroke-miterlimit="10"/>
<path d="M770.19 669.979C770.92 642.31 774.978 613.23 773.365 585.604C771.276 550.259 761.31 518.314 761.039 482.285C760.886 459.876 759.001 441.402 757.252 419.357C754.57 385.615 759.731 367.911 768.475 335.966C783.552 280.928 765.079 227.472 778.203 170.937C784.197 145.171 794.706 124.43 789.358 96.8686C781.888 58.3805 770.682 31.0538 770.19 -10.0429" stroke="white" stroke-width="0.25" stroke-miterlimit="10"/>
<path d="M759.884 669.979C760.716 641.904 765.198 612.695 764.044 584.663C762.601 549.575 751.31 518.121 751.293 482.413C751.293 460.56 750.512 440.461 749.595 418.758C748.237 385.017 755.079 366.35 761.803 334.212C773.382 278.811 754.927 227.728 764.468 171.129C768.764 145.684 779.188 124.088 775.996 97.4032C771.48 59.6421 760.037 29.493 759.816 -9.97873" stroke="white" stroke-width="0.25" stroke-miterlimit="10"/>
<path d="M749.612 669.979C750.495 641.647 755.351 612.524 754.705 584.235C753.924 549.361 741.446 518.528 741.666 483.054C741.819 461.416 742.142 440.076 742.023 418.501C741.819 385.423 748.967 364.853 754.875 333.186C765.198 277.913 744.162 228.028 750.699 171.536C753.636 146.069 764.281 124.495 762.923 98.2585C761.106 61.096 749.629 28.2101 749.595 -9.97873" stroke="white" stroke-width="0.25" stroke-miterlimit="10"/>
<path d="M739.154 669.744C740.291 641.327 745.758 612.289 745.351 583.936C744.858 549.383 731.429 519.383 731.853 484.231C732.125 462.314 733.466 439.969 733.772 417.946C734.247 385.701 740.869 364.725 746.488 333.785C756.675 277.421 731.463 229.012 737.999 172.006C740.801 147.31 749.578 124.367 749.612 99.3064C749.612 62.5289 739.29 27.3978 739.425 -9.97849" stroke="white" stroke-width="0.25" stroke-miterlimit="10"/>
<path d="M728.831 669.316C730.138 641.07 736.131 611.969 735.503 583.787C734.756 549.874 721.666 520.324 721.445 485.813C721.106 432.357 727.269 384.439 736.726 333.443C747.184 277.122 722.566 229.375 727.15 172.37C729.119 147.823 736.063 124.473 736.335 99.67C736.726 63.0421 728.882 26.9701 729.018 -10.0213" stroke="white" stroke-width="0.25" stroke-miterlimit="10"/>
<path d="M718.78 669.145C720.138 641.027 726.573 611.84 725.673 583.722C724.586 550.323 710.987 521.714 710.868 487.502C710.715 433.704 717.965 383.349 727.388 331.817C737.575 275.86 713.805 228.968 716.369 172.434C717.473 147.951 722.532 124.302 723.024 99.8407C723.754 63.3197 718.491 26.6918 718.712 -10.0216" stroke="white" stroke-width="0.25" stroke-miterlimit="10"/>
<path d="M708.593 669.166C710.053 641.112 716.946 611.776 715.809 583.637C714.468 550.366 700.529 522.056 700.63 487.951C700.817 434.346 708.797 383.178 718.271 331.86C728.644 275.753 705.011 228.926 705.537 172.498C706.097 111.665 707.965 50.9823 708.423 -10.0642" stroke="white" stroke-width="0.25" stroke-miterlimit="10"/>
<path d="M698.117 669.294C699.815 641.155 707.116 611.712 705.944 583.53C704.569 550.281 690.155 521.799 690.341 487.759C690.647 434.859 698.932 381.916 708.321 331.219C718.729 274.962 696.182 228.926 694.739 172.669C693.16 112.008 697.676 50.7899 698.134 -9.97856" stroke="white" stroke-width="0.25" stroke-miterlimit="10"/>
<path d="M687.812 669.508C689.611 641.284 697.472 611.776 696.148 583.423C694.603 550.238 679.594 521.692 679.832 487.737C680.206 435.629 689.085 380.676 698.321 330.706C708.729 274.47 687.302 228.733 683.856 172.69C680.087 111.494 687.251 51.3032 687.829 -9.97853" stroke="white" stroke-width="0.25" stroke-miterlimit="10"/>
<path d="M677.54 669.979C679.577 641.732 688.083 611.861 686.521 583.487C684.705 550.516 667.964 521.714 669.289 487.887C671.36 435.457 678.966 380.975 688.406 330.727C698.881 274.94 678.219 228.241 672.922 172.69C666.912 110.233 677.048 52.479 677.54 -9.95732" stroke="white" stroke-width="0.25" stroke-miterlimit="10"/>
</g>
</g>
<defs>
<filter id="filter0_b_799_104618" x="-8" y="-8" width="976" height="556" filterUnits="userSpaceOnUse" color-interpolation-filters="sRGB">
<feFlood flood-opacity="0" result="BackgroundImageFix"/>
<feGaussianBlur in="BackgroundImageFix" stdDeviation="4"/>
<feComposite in2="SourceAlpha" operator="in" result="effect1_backgroundBlur_799_104618"/>
<feBlend mode="normal" in="SourceGraphic" in2="effect1_backgroundBlur_799_104618" result="shape"/>
</filter>
<clipPath id="clip0_799_104618">
<rect width="960" height="540" fill="white"/>
</clipPath>
<clipPath id="clip1_799_104618">
<rect width="540" height="705" fill="white" transform="translate(-40 540) rotate(-90)"/>
</clipPath>
<clipPath id="clip2_799_104618">
<rect width="680" height="705" fill="white" transform="matrix(-1.19249e-08 -1 -1 1.19249e-08 1374 670)"/>
</clipPath>
</defs>
</svg>
