<svg xmlns="http://www.w3.org/2000/svg" width="24" height="24" viewBox="0 0 24 24" fill="none">
	<path d="M19 9.00046C19.0001 7.65871 18.6146 6.34519 17.8894 5.21633C17.1641 4.08746 16.1297 3.19082 14.9093 2.63318C13.6888 2.07553 12.3338 1.88039 11.0057 2.07098C9.67746 2.26158 8.43204 2.82988 7.41769 3.70821C6.40334 4.58654 5.66282 5.73789 5.2843 7.02515C4.90578 8.3124 4.90522 9.68132 5.28269 10.9689C5.66016 12.2565 6.39974 13.4084 7.41337 14.2876C8.427 15.1667 9.67197 15.736 11 15.9277V17.3335H8.66667C8.40145 17.3335 8.1471 17.4389 7.95956 17.6264C7.77202 17.8139 7.66667 18.0683 7.66667 18.3335C7.66667 18.5987 7.77202 18.853 7.95956 19.0405C8.1471 19.2281 8.40145 19.3334 8.66667 19.3334H11V21C11 21.2652 11.1054 21.5196 11.2929 21.7071C11.4804 21.8946 11.7348 22 12 22C12.2652 22 12.5196 21.8946 12.7071 21.7071C12.8946 21.5196 13 21.2652 13 21V19.3334H15.3333C15.5985 19.3334 15.8529 19.2281 16.0404 19.0405C16.228 18.853 16.3333 18.5987 16.3333 18.3335C16.3333 18.0683 16.228 17.8139 16.0404 17.6264C15.8529 17.4389 15.5985 17.3335 15.3333 17.3335H13V15.9277C14.665 15.6853 16.1873 14.8521 17.2888 13.5803C18.3904 12.3085 18.9978 10.683 19 9.00046ZM7 9.00046C7 8.01159 7.29325 7.04492 7.84265 6.22271C8.39206 5.40049 9.17295 4.75965 10.0866 4.38123C11.0002 4.0028 12.0055 3.90379 12.9755 4.09671C13.9454 4.28963 14.8363 4.76581 15.5355 5.46505C16.2348 6.16429 16.711 7.05517 16.9039 8.02504C17.0969 8.99491 16.9978 10.0002 16.6194 10.9138C16.241 11.8274 15.6001 12.6083 14.7779 13.1577C13.9556 13.707 12.9889 14.0003 12 14.0003C10.6744 13.9987 9.40352 13.4715 8.46617 12.5342C7.52882 11.5968 7.00154 10.326 7 9.00046Z" fill="#F4FFFE"/>
</svg>
