<svg xmlns="http://www.w3.org/2000/svg" width="24" height="24" viewBox="0 0 24 24" fill="none">
	<path d="M19.9616 3H15.8078C15.5324 3 15.2683 3.1094 15.0736 3.30412C14.8788 3.49885 14.7694 3.76295 14.7694 4.03833C14.7694 4.31372 14.8788 4.57782 15.0736 4.77255C15.2683 4.96727 15.5324 5.07667 15.8078 5.07667H17.452L14.6206 7.90959C13.1486 6.80963 11.3146 6.30793 9.48769 6.50544C7.66073 6.70295 5.97639 7.585 4.77357 8.97411C3.57075 10.3632 2.93873 12.1563 3.00469 13.9925C3.07064 15.8288 3.82968 17.5719 5.12905 18.8711C6.42843 20.1704 8.17172 20.9294 10.0081 20.9953C11.8446 21.0613 13.6378 20.4293 15.027 19.2266C16.4163 18.0239 17.2984 16.3397 17.496 14.5129C17.6935 12.6862 17.1917 10.8524 16.0917 9.38056L18.9231 6.54764V8.19167C18.9231 8.46705 19.0325 8.73115 19.2273 8.92588C19.422 9.1206 19.6862 9.23 19.9616 9.23C20.237 9.23 20.5011 9.1206 20.6959 8.92588C20.8906 8.73115 21 8.46705 21 8.19167V4.03833C21 3.76295 20.8906 3.49885 20.6959 3.30412C20.5011 3.1094 20.237 3 19.9616 3ZM13.9395 17.4034C13.2133 18.1293 12.2881 18.6235 11.281 18.8237C10.2739 19.0238 9.23003 18.9209 8.28141 18.5279C7.33278 18.1349 6.522 17.4694 5.95157 16.6157C5.38114 15.762 5.07668 14.7583 5.07668 13.7316C5.07668 12.7049 5.38114 11.7012 5.95157 10.8475C6.522 9.99377 7.33278 9.32834 8.28141 8.93533C9.23003 8.54233 10.2739 8.43939 11.281 8.63954C12.2881 8.83969 13.2133 9.33394 13.9395 10.0598C14.9116 11.0346 15.4574 12.355 15.4574 13.7316C15.4574 15.1082 14.9116 16.4286 13.9395 17.4034Z" fill="#F4FFFE"/>
</svg>
