<svg xmlns="http://www.w3.org/2000/svg" width="32" height="32" viewBox="0 0 32 32" fill="none">
  <path d="M17.5997 15.0405C17.5997 14.6868 17.3129 14.4 16.9592 14.4H15.0402C14.6864 14.4 14.3997 14.6868 14.3997 15.0405V23.3595C14.3997 23.7133 14.6864 24 15.0402 24H16.9592C17.3129 24 17.5997 23.7133 17.5997 23.3595V15.0405Z" fill="#14193A"/>
  <path d="M16.9592 8C17.3129 8 17.5997 8.28676 17.5997 8.6405V10.5595C17.5997 10.9133 17.3129 11.2 16.9592 11.2H15.0402C14.6864 11.2 14.3997 10.9133 14.3997 10.5595V8.6405C14.3997 8.28676 14.6864 8 15.0402 8H16.9592Z" fill="#14193A"/>
  <path fill-rule="evenodd" clip-rule="evenodd" d="M32 16C32 7.16003 24.84 0 16 0C7.15999 0 -3.43323e-05 7.15995 -3.43323e-05 16C-3.43323e-05 24.84 7.16007 32 16 32C24.84 32 32 24.8399 32 16ZM28.8 16C28.8 23.056 23.056 28.8 16 28.8C8.94402 28.8 3.19999 23.056 3.19999 16C3.19999 8.94398 8.94402 3.20003 16 3.20003C23.056 3.20003 28.8 8.94398 28.8 16Z" fill="#14193A"/>
</svg>