<svg width="24" height="24" viewBox="0 0 24 24" fill="none" xmlns="http://www.w3.org/2000/svg">
<g id="icon/auto-bet">
<g id="Union">
<path d="M7.44002 7.45638C6.40002 8.49529 5.76001 9.85386 5.60001 11.2924V12.0116H4V11.1325C4.24 9.29445 5.04001 7.61621 6.32002 6.33755C9.44004 3.22082 14.5601 3.22082 17.6801 6.33755L19.2001 4.81914V8.81495H15.2001L16.5601 7.45638C15.2801 6.25763 13.6001 5.6183 12.0001 5.6183C10.32 5.6183 8.72003 6.25763 7.44002 7.45638Z" fill="white"/>
<path d="M16.56 16.5636C17.76 15.3649 18.4 13.6866 18.4 12.0084H20C20 14.0862 19.2 16.164 17.68 17.6824C16.16 19.2008 14.16 20 11.9999 20C9.83993 20 7.83991 19.2008 6.3199 17.6824L4.79989 19.2008V15.205H8.79992L7.43991 16.5636C8.71992 17.7623 10.3199 18.4017 11.9999 18.4017C13.68 18.4017 15.28 17.7623 16.56 16.5636Z" fill="white"/>
</g>
</g>
</svg>
