<svg width="284" height="284" viewBox="0 0 284 284" fill="none" xmlns="http://www.w3.org/2000/svg">
<g clip-path="url(#clip0_13192_38)">
<g opacity="0.6">
<mask id="mask0_13192_38" style="mask-type:alpha" maskUnits="userSpaceOnUse" x="0" y="0" width="284" height="284">
<g opacity="0.6">
<path d="M142 284C220.424 284 284 220.424 284 142C284 63.5756 220.424 0 142 0C63.5756 0 0 63.5756 0 142C0 220.424 63.5756 284 142 284Z" fill="url(#paint0_radial_13192_38)"/>
</g>
</mask>
<g mask="url(#mask0_13192_38)">
<path fill-rule="evenodd" clip-rule="evenodd" d="M142.003 143.159L-130.167 183.743V230.605L142.003 143.159Z" fill="#FFFA67"/>
<path fill-rule="evenodd" clip-rule="evenodd" d="M-130.167 142.16H142.003L-130.167 102.185V142.16Z" fill="#FFFA67"/>
<path fill-rule="evenodd" clip-rule="evenodd" d="M-130.167 54.4589L142.003 142.16L-130.167 -9.74652V54.4589Z" fill="#FFFA67"/>
<path fill-rule="evenodd" clip-rule="evenodd" d="M-93.8818 -85.2L141.999 142.16L32.5261 -85.2H-93.8818Z" fill="#FFFA67"/>
<path fill-rule="evenodd" clip-rule="evenodd" d="M141.996 -85.2V142.16L251.653 -85.2H141.996Z" fill="#FFFA67"/>
<path fill-rule="evenodd" clip-rule="evenodd" d="M377.703 -85.2L141.996 142.16L414.166 -9.41402V-85.2H377.703Z" fill="#FFFA67"/>
<path fill-rule="evenodd" clip-rule="evenodd" d="M414.166 54.714L141.996 142.16L414.166 101.576V54.714Z" fill="#FFFA67"/>
<path fill-rule="evenodd" clip-rule="evenodd" d="M414.166 142.164H141.997L414.166 183.138V142.164Z" fill="#FFFA67"/>
<path fill-rule="evenodd" clip-rule="evenodd" d="M414.166 229.866L141.996 142.162L414.166 294.069V229.866Z" fill="#FFFA67"/>
<path fill-rule="evenodd" clip-rule="evenodd" d="M377.878 370.521L141.997 142.161L251.47 370.521H377.878Z" fill="#FFFA67"/>
<path fill-rule="evenodd" clip-rule="evenodd" d="M142.004 370.521V142.161L32.347 370.521H142.004Z" fill="#FFFA67"/>
<path fill-rule="evenodd" clip-rule="evenodd" d="M-93.7036 370.521L142.003 142.161L-130.167 294.4V370.521H-93.7036Z" fill="#FFFA67"/>
</g>
</g>
</g>
<defs>
<radialGradient id="paint0_radial_13192_38" cx="0" cy="0" r="1" gradientUnits="userSpaceOnUse" gradientTransform="translate(142 142) rotate(90) scale(142)">
<stop stop-color="#D9D9D9"/>
<stop offset="1" stop-color="#737373" stop-opacity="0"/>
</radialGradient>
<clipPath id="clip0_13192_38">
<rect width="284" height="284" fill="white"/>
</clipPath>
</defs>
</svg>
