<svg width="540" height="539" viewBox="0 0 540 539" fill="none" xmlns="http://www.w3.org/2000/svg">
<g opacity="0.6">
<mask id="mask0_4839_92807" style="mask-type:alpha" maskUnits="userSpaceOnUse" x="0" y="-1" width="540" height="540">
<circle cx="270" cy="269" r="270" fill="url(#paint0_radial_4839_92807)"/>
</mask>
<g mask="url(#mask0_4839_92807)">
<path fill-rule="evenodd" clip-rule="evenodd" d="M270.006 271.052L-210 356.542L-210 455.262L270.006 271.052Z" fill="#67DEFF"/>
<path fill-rule="evenodd" clip-rule="evenodd" d="M-210 268.946L270.006 268.946L-210 184.736L-210 268.946Z" fill="#67DEFF"/>
<path fill-rule="evenodd" clip-rule="evenodd" d="M-210 84.199L270.006 268.946L-210 -51.053L-210 84.199Z" fill="#67DEFF"/>
<path fill-rule="evenodd" clip-rule="evenodd" d="M-146.008 -210L269.997 268.946L76.9277 -210L-146.008 -210Z" fill="#67DEFF"/>
<path fill-rule="evenodd" clip-rule="evenodd" d="M269.992 -210L269.992 268.946L463.386 -210L269.992 -210Z" fill="#67DEFF"/>
<path fill-rule="evenodd" clip-rule="evenodd" d="M685.69 -210L269.992 268.946L749.998 -50.3529L749.998 -210L685.69 -210Z" fill="#67DEFF"/>
<path fill-rule="evenodd" clip-rule="evenodd" d="M749.998 84.7361L269.992 268.946L749.998 183.453L749.998 84.7361Z" fill="#67DEFF"/>
<path fill-rule="evenodd" clip-rule="evenodd" d="M749.998 268.955L269.992 268.955L749.998 355.271L749.998 268.955Z" fill="#67DEFF"/>
<path fill-rule="evenodd" clip-rule="evenodd" d="M749.998 453.704L269.992 268.952L749.998 588.951L749.998 453.704Z" fill="#67DEFF"/>
<path fill-rule="evenodd" clip-rule="evenodd" d="M685.997 750L269.992 268.949L463.061 750L685.997 750Z" fill="#67DEFF"/>
<path fill-rule="evenodd" clip-rule="evenodd" d="M270.005 750L270.005 268.949L76.6113 750L270.005 750Z" fill="#67DEFF"/>
<path fill-rule="evenodd" clip-rule="evenodd" d="M-145.693 750L270.006 268.949L-210 589.648L-210 750L-145.693 750Z" fill="#67DEFF"/>
</g>
</g>
<defs>
<radialGradient id="paint0_radial_4839_92807" cx="0" cy="0" r="1" gradientUnits="userSpaceOnUse" gradientTransform="translate(270 269) rotate(90) scale(270)">
<stop stop-color="#D9D9D9"/>
<stop offset="1" stop-color="#737373" stop-opacity="0"/>
</radialGradient>
</defs>
</svg>
