<svg width="24" height="24" viewBox="0 0 24 24" fill="none" xmlns="http://www.w3.org/2000/svg">
<circle cx="12" cy="12" r="12" fill="url(#paint0_linear_5806_2935)"/>
<path fill-rule="evenodd" clip-rule="evenodd" d="M12 21C16.9706 21 21 16.9706 21 12C21 7.02944 16.9706 3 12 3C7.02944 3 3 7.02944 3 12C3 16.9706 7.02944 21 12 21ZM12 20C16.4183 20 20 16.4183 20 12C20 7.58172 16.4183 4 12 4C7.58172 4 4 7.58172 4 12C4 16.4183 7.58172 20 12 20Z" fill="url(#paint1_linear_5806_2935)"/>
<circle cx="12" cy="12" r="7" fill="#767676"/>
<defs>
<linearGradient id="paint0_linear_5806_2935" x1="0" y1="0" x2="24.069" y2="23.9306" gradientUnits="userSpaceOnUse">
<stop stop-color="#52504F"/>
<stop offset="1" stop-color="#312F2E"/>
</linearGradient>
<linearGradient id="paint1_linear_5806_2935" x1="3" y1="3" x2="21" y2="21" gradientUnits="userSpaceOnUse">
<stop stop-color="#191919"/>
<stop offset="1" stop-color="#4A4A4A"/>
</linearGradient>
</defs>
</svg>
